<svg width="28" height="28" viewBox="0 0 28 28" fill="none" xmlns="http://www.w3.org/2000/svg">
<g clip-path="url(#clip0_2028_9986)">
<path d="M23.6118 28C23.0068 28 22.5163 27.5095 22.5163 26.9044C22.5163 24.1976 21.0957 21.6524 18.8464 20.2408L18.8462 23.1796C18.7924 24.6316 16.7085 24.6306 16.6552 23.1796V22.5076C16.321 22.6236 15.9625 22.6866 15.5894 22.6866H12.3527C11.9797 22.6866 11.6211 22.6236 11.287 22.5076V23.1796C11.2332 24.6316 9.14933 24.6306 9.09597 23.1796V20.2457C7.30088 21.3791 5.94855 23.2014 5.49911 25.1382C5.44734 25.3614 5.54244 25.5242 5.60373 25.6014C5.6653 25.6789 5.80301 25.8089 6.03335 25.8089H19.2297C20.6817 25.8627 20.6806 27.9466 19.2297 27.9999H6.03329C5.1929 27.9999 4.41108 27.6225 3.88823 26.9644C3.36577 26.3068 3.17498 25.4607 3.36467 24.643C4.00419 21.8871 6.04518 19.324 8.69117 17.9543C8.6938 17.9529 8.69643 17.9516 8.69912 17.9502C9.33951 17.6251 10.0019 17.62 10.5164 17.9358C11.0024 18.2342 11.2827 18.7744 11.2869 19.4195C11.2812 20.0107 11.7613 20.4959 12.3527 20.4956H15.5894C16.1808 20.4959 16.6609 20.0107 16.6552 19.4195C16.6594 18.7744 16.9397 18.2342 17.4257 17.9358C17.94 17.62 18.6024 17.6251 19.2429 17.9502C20.858 18.7695 22.2239 20.0284 23.1929 21.5907C24.1836 23.188 24.7073 25.0254 24.7073 26.9044C24.7074 27.5095 24.2168 28 23.6118 28ZM21.7494 8.82809H6.30235C4.85033 8.77425 4.85143 6.69037 6.30235 6.63702H6.51692C7.61645 -2.21557 20.1921 -2.20911 21.2884 6.63702H21.7494C23.2014 6.69087 23.2003 8.77474 21.7494 8.82809ZM8.72355 6.63702H19.0817C18.1138 0.685738 9.68915 0.69001 8.72355 6.63702Z" fill="#914948"/>
<path d="M13.8828 16.4971C10.8039 16.4971 8.00761 14.5134 6.92473 11.561C6.71636 10.993 7.00799 10.3636 7.57603 10.1552C8.14412 9.94683 8.77345 10.2385 8.98176 10.8065C10.6605 15.4303 17.1369 15.4284 18.8092 10.867C19.0144 10.2978 19.6424 10.0027 20.2113 10.2079C20.7805 10.413 21.0756 11.0408 20.8705 11.61C19.8168 14.5331 17.0088 16.4971 13.8828 16.4971Z" fill="#914948"/>
</g>
<defs>
<clipPath id="clip0_2028_9986">
<rect width="28" height="28" fill="white"/>
</clipPath>
</defs>
</svg>
