<svg width="28" height="28" viewBox="0 0 28 28" fill="none" xmlns="http://www.w3.org/2000/svg">
<g clip-path="url(#clip0_2028_9939)">
<path d="M22.5312 6.5625C23.1353 6.5625 23.625 6.07281 23.625 5.46875C23.625 4.86469 23.1353 4.375 22.5312 4.375C21.9272 4.375 21.4375 4.86469 21.4375 5.46875C21.4375 6.07281 21.9272 6.5625 22.5312 6.5625Z" fill="#914948"/>
<path d="M22.5312 13.125C21.3625 13.125 20.2731 12.4958 19.6884 11.483L17.7929 8.20045C17.315 7.37313 17.0625 6.42857 17.0625 5.46875C17.0625 2.45328 19.5157 0 22.5312 0C25.5468 0 28 2.45328 28 5.46875C28 6.42791 27.7478 7.37193 27.2706 8.1988C27.2703 8.1993 27.27 8.19984 27.2697 8.20034C26.8076 9.00047 25.7567 10.8204 25.3741 11.483C24.7894 12.4958 23.7 13.125 22.5312 13.125ZM21.5828 10.3893C21.7781 10.7274 22.1415 10.9375 22.5312 10.9375C22.9205 10.9375 23.2835 10.728 23.4789 10.3906C23.4791 10.3902 25.0572 7.65745 25.3754 7.10653C25.3755 7.1062 25.3758 7.10582 25.376 7.10544C25.6616 6.61041 25.8125 6.04455 25.8125 5.46875C25.8125 3.65947 24.3405 2.1875 22.5312 2.1875C20.722 2.1875 19.25 3.65947 19.25 5.46875C19.25 6.04499 19.4012 6.61128 19.6871 7.10642C20.5026 8.51867 21.1405 9.62336 21.5828 10.3893Z" fill="#914948"/>
<path d="M20.9941 15.1055C20.4537 14.8354 19.7968 15.0544 19.5267 15.5946L18.5611 17.5259C18.4283 17.5095 18.2934 17.5 18.1562 17.5C17.2732 17.5 16.4711 17.8513 15.8807 18.4206L12.6616 16.8111C12.678 16.6783 12.6875 16.5434 12.6875 16.4062C12.6875 14.597 11.2155 13.125 9.40625 13.125C7.59697 13.125 6.125 14.597 6.125 16.4062C6.125 17.0831 6.33106 17.7126 6.68363 18.2356L4.24895 21.5833C3.94291 21.4887 3.61796 21.4376 3.28125 21.4376C1.47197 21.4376 0 22.9095 0 24.7188C0 26.5281 1.47197 28.0001 3.28125 28.0001C5.09053 28.0001 6.5625 26.5281 6.5625 24.7188C6.5625 24.042 6.35644 23.4125 6.00387 22.8895L8.43855 19.5418C8.74459 19.6364 9.06954 19.6876 9.40625 19.6876C10.2893 19.6876 11.0914 19.3363 11.6818 18.7669L14.9009 20.3765C14.8845 20.5092 14.875 20.6441 14.875 20.7813C14.875 22.5906 16.347 24.0626 18.1562 24.0626C19.9655 24.0626 21.4375 22.5906 21.4375 20.7813C21.4375 19.8983 21.0862 19.0962 20.5169 18.5058L21.4833 16.5729C21.7534 16.0326 21.5344 15.3757 20.9941 15.1055ZM3.28125 25.8126C2.67816 25.8126 2.1875 25.3219 2.1875 24.7188C2.1875 24.1157 2.67816 23.6251 3.28125 23.6251C3.88434 23.6251 4.375 24.1157 4.375 24.7188C4.375 25.3219 3.88434 25.8126 3.28125 25.8126ZM9.40625 17.5001C8.80316 17.5001 8.3125 17.0094 8.3125 16.4063C8.3125 15.8032 8.80316 15.3126 9.40625 15.3126C10.0093 15.3126 10.5 15.8032 10.5 16.4063C10.5 17.0094 10.0093 17.5001 9.40625 17.5001ZM18.1562 21.8751C17.5532 21.8751 17.0625 21.3844 17.0625 20.7813C17.0625 20.1782 17.5532 19.6876 18.1562 19.6876C18.7593 19.6876 19.25 20.1782 19.25 20.7813C19.25 21.3844 18.7593 21.8751 18.1562 21.8751Z" fill="#914948"/>
</g>
<defs>
<clipPath id="clip0_2028_9939">
<rect width="28" height="28" fill="white"/>
</clipPath>
</defs>
</svg>
