<svg width="28" height="28" viewBox="0 0 28 28" fill="none" xmlns="http://www.w3.org/2000/svg">
<g clip-path="url(#clip0_2028_9949)">
<path d="M26.9062 16.1875C26.3022 16.1875 25.8125 16.6772 25.8125 17.2812V23.8438C25.8125 24.4468 25.3218 24.9375 24.7188 24.9375H3.28125C2.67816 24.9375 2.1875 24.4468 2.1875 23.8438V13.8175L9.20817 16.7116C9.76659 16.9419 10.406 16.6757 10.6362 16.1173C10.8664 15.5588 10.6004 14.9195 10.0418 14.6892C10.0418 14.6892 2.87897 11.7365 2.87547 11.7351C2.45755 11.5679 2.1875 11.169 2.1875 10.7188C2.1875 8.90947 3.65947 7.4375 5.46875 7.4375H22.5312C24.3405 7.4375 25.8125 8.90947 25.8125 10.7188C25.8125 11.169 25.5425 11.5679 25.1245 11.7351C25.121 11.7365 17.9582 14.6892 17.9582 14.6892C17.3997 14.9194 17.1336 15.5588 17.3638 16.1172C17.594 16.6757 18.2333 16.9418 18.7918 16.7116L25.943 13.7636C27.1928 13.261 28 12.0665 28 10.7188C28 7.70328 25.5468 5.25 22.5312 5.25H21.2354C19.8143 2.54231 17.0198 0.875 14 0.875C10.9782 0.875 8.18475 2.54406 6.76468 5.25H5.46875C2.45328 5.25 0 7.70328 0 10.7188V23.8438C0 25.653 1.47197 27.125 3.28125 27.125H24.7188C26.528 27.125 28 25.653 28 23.8438V17.2812C28 16.6772 27.5103 16.1875 26.9062 16.1875ZM14 3.0625C15.828 3.0625 17.5076 3.87685 18.6282 5.25H9.37185C10.4924 3.87685 12.172 3.0625 14 3.0625Z" fill="#914948"/>
<path d="M14 20.5625C13.3959 20.5625 12.9062 20.0728 12.9062 19.4688V15.0938C12.9062 14.4897 13.3959 14 14 14C14.6041 14 15.0938 14.4897 15.0938 15.0938V19.4688C15.0938 20.0728 14.6041 20.5625 14 20.5625Z" fill="#914948"/>
</g>
<defs>
<clipPath id="clip0_2028_9949">
<rect width="28" height="28" fill="white"/>
</clipPath>
</defs>
</svg>
