<svg width="28" height="28" viewBox="0 0 28 28" fill="none" xmlns="http://www.w3.org/2000/svg">
<g clip-path="url(#clip0_2028_2454)">
<path d="M6.34375 5.46875C6.34375 4.86566 6.83441 4.375 7.4375 4.375H9.625C11.4343 4.375 12.9062 2.90303 12.9062 1.09375C12.9062 0.489672 12.4166 0 11.8125 0C11.2084 0 10.7188 0.489672 10.7188 1.09375C10.7188 1.69684 10.2281 2.1875 9.625 2.1875H7.4375C5.62822 2.1875 4.15625 3.65947 4.15625 5.46875C4.15625 6.07283 4.64592 6.5625 5.25 6.5625C5.85408 6.5625 6.34375 6.07283 6.34375 5.46875Z" fill="#914948"/>
<path d="M24.7188 10.5C23.751 10.5 22.8373 10.9242 22.2121 11.6638C22.2068 11.67 19.4688 15.0607 19.4688 15.0607V13.7812C19.4688 11.972 17.9968 10.5 16.1875 10.5C15.2198 10.5 14.3061 10.9242 13.6808 11.6638C13.6733 11.6727 13.666 11.6817 13.6587 11.6908L10.4101 15.792C9.96499 16.3138 9.38853 16.6906 8.75006 16.8927V12.0312C8.75006 10.222 7.27809 8.75 5.4688 8.75C3.65952 8.75 2.18755 10.222 2.18755 12.0312V17.2506C0.914484 17.7022 0 18.9179 0 20.3438V24.7188C0 26.528 1.47197 28 3.28125 28H9.84375C10.4478 28 10.9375 27.5103 10.9375 26.9062V24.7188C10.9375 22.9095 9.46553 21.4375 7.65625 21.4375C5.84697 21.4375 4.375 22.9095 4.375 24.7188V25.8125H3.28125C2.67816 25.8125 2.1875 25.3218 2.1875 24.7188V20.3438C2.1875 19.7407 2.67816 19.25 3.28125 19.25H7.65625C9.36901 19.25 10.9855 18.4998 12.0912 17.1917C12.0987 17.1829 12.1061 17.1739 12.1133 17.1648L15.3608 13.065C15.5693 12.8249 15.8697 12.6875 16.1875 12.6875C16.7906 12.6875 17.2812 13.1782 17.2812 13.7812V18.1562C17.2812 18.6198 17.5735 19.0331 18.0106 19.1875C18.4477 19.3419 18.9347 19.204 19.226 18.8434L23.8892 13.0683C24.0978 12.8261 24.3995 12.6875 24.7188 12.6875C25.3218 12.6875 25.8125 13.1782 25.8125 13.7812V24.7188C25.8125 25.3218 25.3218 25.8125 24.7188 25.8125H14.2188C13.6147 25.8125 13.125 26.3022 13.125 26.9062C13.125 27.5103 13.6147 28 14.2188 28H24.7188C26.528 28 28 26.528 28 24.7188V13.7812C28 11.972 26.528 10.5 24.7188 10.5ZM6.5625 24.7188C6.5625 24.1157 7.05316 23.625 7.65625 23.625C8.25934 23.625 8.75 24.1157 8.75 24.7188V25.8125H6.5625V24.7188ZM4.375 12.0312C4.375 11.4282 4.86566 10.9375 5.46875 10.9375C6.07184 10.9375 6.5625 11.4282 6.5625 12.0312V17.0625H4.375V12.0312Z" fill="#914948"/>
<path d="M14.2188 23.625H16.4062C17.0103 23.625 17.5 23.1353 17.5 22.5312C17.5 21.9272 17.0103 21.4375 16.4062 21.4375H14.2188C13.6147 21.4375 13.125 21.9272 13.125 22.5312C13.125 23.1353 13.6147 23.625 14.2188 23.625Z" fill="#914948"/>
<path d="M22.75 23.625C23.3541 23.625 23.8438 23.1353 23.8438 22.5312C23.8438 21.9272 23.3541 21.4375 22.75 21.4375H20.5625C19.9584 21.4375 19.4688 21.9272 19.4688 22.5312C19.4688 23.1353 19.9584 23.625 20.5625 23.625H22.75Z" fill="#914948"/>
</g>
<defs>
<clipPath id="clip0_2028_2454">
<rect width="28" height="28" fill="white"/>
</clipPath>
</defs>
</svg>
