<svg width="28" height="28" viewBox="0 0 28 28" fill="none" xmlns="http://www.w3.org/2000/svg">
<g clip-path="url(#clip0_2028_10079)">
<path d="M17.2812 28H6.34375C3.32823 28 0.875 25.5467 0.875 22.5312V5.46875C0.875 2.45328 3.32823 0 6.34375 0H13.3638C13.9678 0 14.4575 0.489672 14.4575 1.09375C14.4575 1.69783 13.9678 2.1875 13.3638 2.1875H6.34375C4.53447 2.1875 3.0625 3.65947 3.0625 5.46875V22.5312C3.0625 24.3405 4.53447 25.8125 6.34375 25.8125H17.2812C19.0905 25.8125 20.5625 24.3405 20.5625 22.5312V16.4062C20.5625 15.8022 21.0522 15.3125 21.6562 15.3125C22.2603 15.3125 22.75 15.8022 22.75 16.4062V22.5312C22.75 25.5467 20.2968 28 17.2812 28Z" fill="#914948"/>
<path d="M10.7188 8.75H6.34375C5.73967 8.75 5.25 8.26033 5.25 7.65625C5.25 7.05217 5.73967 6.5625 6.34375 6.5625H10.7188C11.3228 6.5625 11.8125 7.05217 11.8125 7.65625C11.8125 8.26033 11.3228 8.75 10.7188 8.75Z" fill="#914948"/>
<path d="M10.7188 13.125H6.34375C5.73967 13.125 5.25 12.6353 5.25 12.0312C5.25 11.4272 5.73967 10.9375 6.34375 10.9375H10.7188C11.3228 10.9375 11.8125 11.4272 11.8125 12.0312C11.8125 12.6353 11.3228 13.125 10.7188 13.125Z" fill="#914948"/>
<path d="M12.9063 23.625C12.6264 23.625 12.3464 23.5182 12.1328 23.3047L9.94533 21.1172C9.51822 20.69 9.51822 19.9975 9.94533 19.5704C10.3725 19.1432 11.0651 19.1432 11.4922 19.5704L12.9063 20.9845L16.5078 17.3829C16.935 16.9557 17.6276 16.9557 18.0547 17.3829C18.4818 17.81 18.4818 18.5025 18.0547 18.9297L13.6797 23.3047C13.4661 23.5182 13.1862 23.625 12.9063 23.625Z" fill="#914948"/>
<path d="M21.6562 13.125C21.4898 13.125 21.3234 13.087 21.1703 13.0111C19.6692 12.2666 18.4098 11.1163 17.5283 9.68428C16.6512 8.25929 16.1875 6.62003 16.1875 4.94375V3.28125C16.1875 3.01104 16.2875 2.7504 16.4683 2.54959C16.562 2.44546 18.7958 0 21.6562 0C24.5167 0 26.7505 2.44546 26.8442 2.54959C27.025 2.7504 27.125 3.01104 27.125 3.28125V4.94375C27.125 6.61998 26.6613 8.25923 25.7841 9.68428C24.9027 11.1163 23.6433 12.2666 22.1421 13.0111C21.9891 13.087 21.8227 13.125 21.6562 13.125ZM18.375 3.73844V4.94375C18.375 7.33184 19.6466 9.56698 21.6562 10.7843C23.6659 9.56692 24.9375 7.33184 24.9375 4.94375V3.73762C24.382 3.22618 23.0785 2.1875 21.6562 2.1875C20.2392 2.1875 18.9306 3.2287 18.375 3.73844Z" fill="#914948"/>
</g>
<defs>
<clipPath id="clip0_2028_10079">
<rect width="28" height="28" fill="white"/>
</clipPath>
</defs>
</svg>
