<svg width="28" height="28" viewBox="0 0 28 28" fill="none" xmlns="http://www.w3.org/2000/svg">
<g clip-path="url(#clip0_2028_8444)">
<path d="M14 15.0938C14.6041 15.0938 15.0938 14.6041 15.0938 14V11.8125C15.0938 11.2084 14.6041 10.7188 14 10.7188C13.3959 10.7188 12.9062 11.2084 12.9062 11.8125V14C12.9062 14.6041 13.3959 15.0938 14 15.0938Z" fill="#914948"/>
<path d="M24.7188 0C22.9095 0 21.4375 1.47197 21.4375 3.28125V20.3438C21.4375 22.153 22.9095 23.625 24.7188 23.625C25.3218 23.625 25.8125 24.1157 25.8125 24.7188C25.8125 25.3218 25.3218 25.8125 24.7188 25.8125H4.375C3.16881 25.8125 2.1875 24.8312 2.1875 23.625V6.5625C2.1875 5.35631 3.16881 4.375 4.375 4.375H18.1562C18.7603 4.375 19.25 3.88533 19.25 3.28125C19.25 2.67717 18.7603 2.1875 18.1562 2.1875H4.375C1.96263 2.1875 0 4.15013 0 6.5625V23.625C0 26.0374 1.96263 28 4.375 28H24.7188C26.528 28 28 26.528 28 24.7188V3.28125C28 1.47197 26.528 0 24.7188 0ZM24.7188 21.4375C24.1157 21.4375 23.625 20.9468 23.625 20.3438V3.28125C23.625 2.67816 24.1157 2.1875 24.7188 2.1875C25.3218 2.1875 25.8125 2.67816 25.8125 3.28125V21.6256C25.4702 21.5042 25.1022 21.4375 24.7188 21.4375Z" fill="#914948"/>
<path d="M5.25 17.2812C4.64592 17.2812 4.15625 17.7709 4.15625 18.375V20.5625C4.15625 22.3718 5.62822 23.8438 7.4375 23.8438H16.1875C17.9968 23.8438 19.4688 22.3718 19.4688 20.5625V9.625C19.4688 7.81572 17.9968 6.34375 16.1875 6.34375H7.4375C5.62822 6.34375 4.15625 7.81572 4.15625 9.625V11.8125C4.15625 13.6218 5.62822 15.0938 7.4375 15.0938H9.625C10.2291 15.0938 10.7188 14.6041 10.7188 14C10.7188 13.3959 10.2291 12.9062 9.625 12.9062H7.4375C6.83441 12.9062 6.34375 12.4156 6.34375 11.8125V9.625C6.34375 9.02191 6.83441 8.53125 7.4375 8.53125H16.1875C16.7906 8.53125 17.2812 9.02191 17.2812 9.625V20.5625C17.2812 21.1656 16.7906 21.6562 16.1875 21.6562H10.7188V20.5625C10.7188 19.9594 11.2094 19.4688 11.8125 19.4688H14C14.6041 19.4688 15.0938 18.9791 15.0938 18.375C15.0938 17.7709 14.6041 17.2812 14 17.2812H11.8125C10.0032 17.2812 8.53125 18.7532 8.53125 20.5625V21.6562H7.4375C6.83441 21.6562 6.34375 21.1656 6.34375 20.5625V18.375C6.34375 17.7709 5.85408 17.2812 5.25 17.2812Z" fill="#914948"/>
</g>
<defs>
<clipPath id="clip0_2028_8444">
<rect width="28" height="28" fill="white"/>
</clipPath>
</defs>
</svg>
