<svg width="24" height="24" viewBox="0 0 24 24" fill="none" xmlns="http://www.w3.org/2000/svg">
<g clip-path="url(#clip0_2028_2568)">
<path d="M5.4375 4.6875C5.4375 4.17056 5.85806 3.75 6.375 3.75H8.25C9.80081 3.75 11.0625 2.48831 11.0625 0.9375C11.0625 0.419719 10.6428 0 10.125 0C9.60722 0 9.1875 0.419719 9.1875 0.9375C9.1875 1.45444 8.76694 1.875 8.25 1.875H6.375C4.82419 1.875 3.5625 3.13669 3.5625 4.6875C3.5625 5.20528 3.98222 5.625 4.5 5.625C5.01778 5.625 5.4375 5.20528 5.4375 4.6875Z" fill="#914948"/>
<path d="M21.1875 9C20.358 9 19.5749 9.36356 19.0389 9.99755C19.0344 10.0029 16.6875 12.9092 16.6875 12.9092V11.8125C16.6875 10.2617 15.4258 9 13.875 9C13.0455 9 12.2624 9.36356 11.7264 9.99755C11.72 10.0051 11.7137 10.0129 11.7075 10.0207L8.92294 13.536C8.54142 13.9833 8.04731 14.3062 7.50005 14.4795V10.3125C7.50005 8.76169 6.23836 7.5 4.68755 7.5C3.13673 7.5 1.87505 8.76169 1.87505 10.3125V14.7863C0.783844 15.1733 0 16.2153 0 17.4375V21.1875C0 22.7383 1.26169 24 2.8125 24H8.4375C8.95528 24 9.375 23.5803 9.375 23.0625V21.1875C9.375 19.6367 8.11331 18.375 6.5625 18.375C5.01169 18.375 3.75 19.6367 3.75 21.1875V22.125H2.8125C2.29556 22.125 1.875 21.7044 1.875 21.1875V17.4375C1.875 16.9206 2.29556 16.5 2.8125 16.5H6.5625C8.03058 16.5 9.41616 15.857 10.3639 14.7358C10.3703 14.7282 10.3766 14.7205 10.3828 14.7127L13.1664 11.1986C13.3451 10.9928 13.6026 10.875 13.875 10.875C14.3919 10.875 14.8125 11.2956 14.8125 11.8125V15.5625C14.8125 15.9599 15.063 16.314 15.4377 16.4464C15.8123 16.5787 16.2298 16.4606 16.4794 16.1515L20.4765 11.2014C20.6552 10.9938 20.9138 10.875 21.1875 10.875C21.7044 10.875 22.125 11.2956 22.125 11.8125V21.1875C22.125 21.7044 21.7044 22.125 21.1875 22.125H12.1875C11.6697 22.125 11.25 22.5447 11.25 23.0625C11.25 23.5803 11.6697 24 12.1875 24H21.1875C22.7383 24 24 22.7383 24 21.1875V11.8125C24 10.2617 22.7383 9 21.1875 9ZM5.625 21.1875C5.625 20.6706 6.04556 20.25 6.5625 20.25C7.07944 20.25 7.5 20.6706 7.5 21.1875V22.125H5.625V21.1875ZM3.75 10.3125C3.75 9.79556 4.17056 9.375 4.6875 9.375C5.20444 9.375 5.625 9.79556 5.625 10.3125V14.625H3.75V10.3125Z" fill="#914948"/>
<path d="M12.1875 20.25H14.0625C14.5803 20.25 15 19.8303 15 19.3125C15 18.7947 14.5803 18.375 14.0625 18.375H12.1875C11.6697 18.375 11.25 18.7947 11.25 19.3125C11.25 19.8303 11.6697 20.25 12.1875 20.25Z" fill="#914948"/>
<path d="M19.5 20.25C20.0178 20.25 20.4375 19.8303 20.4375 19.3125C20.4375 18.7947 20.0178 18.375 19.5 18.375H17.625C17.1072 18.375 16.6875 18.7947 16.6875 19.3125C16.6875 19.8303 17.1072 20.25 17.625 20.25H19.5Z" fill="#914948"/>
</g>
<defs>
<clipPath id="clip0_2028_2568">
<rect width="24" height="24" fill="white"/>
</clipPath>
</defs>
</svg>
