<svg width="14" height="14" viewBox="0 0 14 14" fill="none" xmlns="http://www.w3.org/2000/svg">
<g clip-path="url(#clip0_2041_9498)">
<path d="M11.1433 1.71856C10.0405 0.611045 8.57138 0.00110237 7.00644 0.00110237H6.99969C3.84837 -0.0633971 1.0837 2.71186 1.14858 5.86203C1.23107 8.08642 3.37098 10.9114 5.03742 13.0817C5.52681 13.6663 6.23989 14 7.00595 14C7.79886 14 8.53507 13.6427 9.02575 13.0197C10.262 11.4835 12.9314 7.78856 12.8508 5.86197C12.8509 4.29591 12.2444 2.82442 11.1433 1.71856ZM8.16661 12.343C7.60148 13.0885 6.41269 13.0898 5.84734 12.3443C3.58772 9.46703 2.2422 7.07087 2.2422 5.862C2.2422 3.23335 4.3764 1.09481 6.99969 1.09481H7.00644C9.62601 1.09481 11.7572 3.23338 11.7572 5.862C11.7572 7.08402 10.4485 9.44625 8.16661 12.343Z" fill="#222222"/>
<path d="M7.05441 8.17644C5.77292 8.17644 4.73035 7.13387 4.73035 5.85238C4.73035 4.57089 5.77292 3.52832 7.05441 3.52832C8.33589 3.52832 9.37847 4.57089 9.37847 5.85238C9.37847 7.13387 8.33589 8.17644 7.05441 8.17644ZM7.05441 4.622C6.37597 4.622 5.82402 5.17395 5.82402 5.85238C5.82402 6.53081 6.37597 7.08276 7.05441 7.08276C7.73284 7.08276 8.28479 6.53081 8.28479 5.85238C8.28479 5.17395 7.73287 4.622 7.05441 4.622Z" fill="#222222"/>
</g>
<defs>
<clipPath id="clip0_2041_9498">
<rect width="14" height="14" fill="white"/>
</clipPath>
</defs>
</svg>
