<svg width="14" height="14" viewBox="0 0 14 14" fill="none" xmlns="http://www.w3.org/2000/svg">
<g clip-path="url(#clip0_11_1455)">
<path d="M11.1433 1.71856C10.0405 0.611045 8.57135 0.00110237 7.00641 0.00110237H6.99966C3.84834 -0.0633971 1.08367 2.71186 1.14855 5.86203C1.23104 8.08642 3.37095 10.9114 5.03739 13.0817C5.52678 13.6663 6.23985 14 7.00592 14C7.79883 14 8.53504 13.6427 9.02572 13.0197C10.262 11.4835 12.9314 7.78856 12.8508 5.86197C12.8508 4.29591 12.2444 2.82442 11.1433 1.71856ZM8.16658 12.343C7.60145 13.0885 6.41265 13.0898 5.84731 12.3443C3.58769 9.46703 2.24217 7.07087 2.24217 5.862C2.24217 3.23335 4.37637 1.09481 6.99966 1.09481H7.00641C9.62598 1.09481 11.7571 3.23338 11.7571 5.862C11.7571 7.08402 10.4484 9.44625 8.16658 12.343Z" fill="#222222"/>
<path d="M7.05435 8.1762C5.77286 8.1762 4.73029 7.13362 4.73029 5.85214C4.73029 4.57065 5.77286 3.52808 7.05435 3.52808C8.33583 3.52808 9.37841 4.57065 9.37841 5.85214C9.37841 7.13362 8.33583 8.1762 7.05435 8.1762ZM7.05435 4.62175C6.37591 4.62175 5.82396 5.1737 5.82396 5.85214C5.82396 6.53057 6.37591 7.08252 7.05435 7.08252C7.73278 7.08252 8.28473 6.53057 8.28473 5.85214C8.28473 5.1737 7.73281 4.62175 7.05435 4.62175Z" fill="#222222"/>
</g>
<defs>
<clipPath id="clip0_11_1455">
<rect width="14" height="14" fill="white"/>
</clipPath>
</defs>
</svg>
