<svg width="36" height="36" viewBox="0 0 36 36" fill="none" xmlns="http://www.w3.org/2000/svg">
<path d="M24.4388 5.66436L26.794 5.6543L26.784 9.97723L24.3885 8.03393L24.4388 5.66436Z" fill="white"/>
<path d="M9.41187 15.3162L18.3821 8.74854L26.6677 15.1267L26.6734 25.8522L13.9946 25.8494L14.019 23.7669L24.479 23.7295L24.4661 16.2333L18.3649 11.497L11.6896 16.3151L11.6681 25.8422L9.44774 25.8465L9.41187 15.3162Z" fill="white"/>
<path d="M15.5302 16.3511L18.0189 16.3311L18.0218 18.6906L15.5274 18.6777L15.5302 16.3511Z" fill="white"/>
<path d="M18.3204 16.3354L20.8564 16.3325L20.8521 18.682L18.3333 18.6863L18.3204 16.3354Z" fill="white"/>
<path d="M15.526 19.0219L18.0304 18.9961L18.0175 21.027L15.526 21.0097V19.0219Z" fill="white"/>
<path d="M18.3405 19.0107L20.8478 19.0237L20.8521 21.0244L18.3448 21.0215L18.3405 19.0107Z" fill="white"/>
<path d="M35.25 16.7244L26.7839 9.97718L24.3885 8.03385L18.5356 3.42676L1.04453 16.7244H5.09741L5.11187 25.8437L7.20443 25.8394V14.3561C7.20443 14.3561 14.7552 8.79886 18.5213 6.01018C21.3961 8.30944 28.9325 14.2829 28.9325 14.2829L29.0028 25.848L31.0925 25.8466L31.0825 15.9262L32.0175 16.7244H35.25Z" fill="white"/>
</svg>
