<svg width="36" height="36" viewBox="0 0 36 36" fill="none" xmlns="http://www.w3.org/2000/svg">
<path d="M24.4388 5.66405L26.794 5.65399L26.784 9.97693L24.3885 8.03363L24.4388 5.66405Z" fill="#914948"/>
<path d="M9.41187 15.316L18.3821 8.74837L26.6677 15.1266L26.6734 25.8521L13.9946 25.8492L14.019 23.7667L24.479 23.7294L24.4661 16.2331L18.3649 11.4968L11.6896 16.3149L11.6681 25.842L9.44774 25.8464L9.41187 15.316Z" fill="#914948"/>
<path d="M15.5302 16.3508L18.0189 16.3307L18.0218 18.6902L15.5274 18.6774L15.5302 16.3508Z" fill="#914948"/>
<path d="M18.3204 16.335L20.8564 16.3322L20.8521 18.6816L18.3333 18.6859L18.3204 16.335Z" fill="#914948"/>
<path d="M15.526 19.0218L18.0304 18.996L18.0175 21.0268L15.526 21.0096V19.0218Z" fill="#914948"/>
<path d="M18.3405 19.0103L20.8478 19.0232L20.8521 21.0239L18.3448 21.0211L18.3405 19.0103Z" fill="#914948"/>
<path d="M35.25 16.7242L26.7839 9.97693L24.3885 8.0336L18.5356 3.42651L1.04453 16.7242H5.09741L5.11187 25.8435L7.20443 25.8392V14.3559C7.20443 14.3559 14.7552 8.79862 18.5213 6.00993C21.3961 8.3092 28.9325 14.2827 28.9325 14.2827L29.0028 25.8478L31.0925 25.8464L31.0825 15.926L32.0175 16.7242H35.25Z" fill="#222222"/>
</svg>
