<svg width="24" height="25" viewBox="0 0 24 25" fill="none" xmlns="http://www.w3.org/2000/svg">
<path d="M19.3125 21.875H4.6875C2.10281 21.875 0 19.7722 0 17.1875V7.8125C0 5.22781 2.10281 3.125 4.6875 3.125H19.3125C21.8972 3.125 24 5.22781 24 7.8125V17.1875C24 19.7722 21.8972 21.875 19.3125 21.875ZM4.6875 5C3.13669 5 1.875 6.26169 1.875 7.8125V17.1875C1.875 18.7383 3.13669 20 4.6875 20H19.3125C20.8633 20 22.125 18.7383 22.125 17.1875V7.8125C22.125 6.26169 20.8633 5 19.3125 5H4.6875Z" fill="#914948"/>
<path d="M16.0927 12.4799L19.9856 8.46512C20.346 8.0934 20.3368 7.49987 19.9651 7.13945C19.5934 6.77902 18.9999 6.78816 18.6394 7.15988L12.6587 13.328C12.2942 13.6879 11.7058 13.6879 11.3413 13.328L5.36056 7.15988C5.00018 6.78816 4.40665 6.77902 4.03488 7.13945C3.66316 7.49987 3.65402 8.0934 4.01445 8.46512L7.90727 12.4799L4.01121 16.5383C3.65266 16.9118 3.66476 17.5052 4.03826 17.8638C4.41166 18.2222 5.00515 18.2103 5.36379 17.8367L9.2133 13.8268L10.0011 14.6393C10.0044 14.6428 10.0078 14.6462 10.0112 14.6496C10.5595 15.1979 11.2797 15.472 11.9999 15.472C12.7201 15.472 13.4404 15.1979 13.9886 14.6496C13.9921 14.6462 13.9954 14.6428 13.9988 14.6393L14.7866 13.8268L18.6361 17.8367C18.9945 18.2101 19.588 18.2225 19.9616 17.8638C20.3351 17.5052 20.3472 16.9118 19.9886 16.5383L16.0927 12.4799Z" fill="#914948"/>
</svg>
