<svg width="45" height="45" viewBox="0 0 45 45" fill="none" xmlns="http://www.w3.org/2000/svg">
<circle cx="22.5" cy="22.5" r="22" stroke="#D5D7D9"/>
<path d="M28.2891 29.9219H16.7109C14.6647 29.9219 13 28.2571 13 26.2109V18.7891C13 16.7429 14.6647 15.0781 16.7109 15.0781H28.2891C30.3353 15.0781 32 16.7429 32 18.7891V26.2109C32 28.2571 30.3353 29.9219 28.2891 29.9219ZM16.7109 16.5625C15.4832 16.5625 14.4844 17.5613 14.4844 18.7891V26.2109C14.4844 27.4387 15.4832 28.4375 16.7109 28.4375H28.2891C29.5168 28.4375 30.5156 27.4387 30.5156 26.2109V18.7891C30.5156 17.5613 29.5168 16.5625 28.2891 16.5625H16.7109Z" fill="#222222"/>
<path d="M25.7401 22.484L28.8219 19.3057C29.1072 19.0114 29.1 18.5415 28.8057 18.2562C28.5114 17.9709 28.0416 17.9781 27.7562 18.2724L23.0214 23.1555C22.7329 23.4404 22.2671 23.4404 21.9786 23.1555L17.2438 18.2724C16.9585 17.9781 16.4886 17.9709 16.1943 18.2562C15.9 18.5415 15.8928 19.0114 16.1781 19.3057L19.2599 22.484L16.1755 25.6969C15.8917 25.9926 15.9013 26.4625 16.197 26.7463C16.4926 27.0301 16.9624 27.0207 17.2463 26.7249L20.2939 23.5504L20.9175 24.1936C20.9202 24.1963 20.9229 24.1991 20.9255 24.2018C21.3596 24.6358 21.9298 24.8528 22.4999 24.8528C23.0701 24.8528 23.6403 24.6358 24.0743 24.2018C24.0771 24.1991 24.0797 24.1963 24.0824 24.1936L24.706 23.5504L27.7536 26.7249C28.0373 27.0205 28.5072 27.0303 28.8029 26.7463C29.0986 26.4625 29.1082 25.9926 28.8243 25.6969L25.7401 22.484Z" fill="#222222"/>
</svg>
