<svg width="254" height="76" viewBox="0 0 254 76" fill="none" xmlns="http://www.w3.org/2000/svg">
<rect width="254" height="76" rx="10" fill="white"/>
<path d="M19.623 68.0054H47.7381V56.2269H25.8084V32.1091L42.1151 20.8915L58.4218 32.1091V42.7658H70.2302V29.3047C70.2302 27.0611 69.2674 24.9252 67.4187 23.6959L45.4888 9.11301C43.2397 7.61734 40.9905 7.64071 38.7412 9.11301C32.7434 13.0392 20.0729 21.6206 17.3738 23.4155C14.6748 25.2102 14 27.3269 14 29.3047V62.3966C14 65.0888 16.8115 68.0054 19.623 68.0054Z" fill="url(#paint0_linear_56_1047)"/>
<path d="M47.7383 68.0051V48.901C47.7383 45.5101 50.4236 42.7656 53.7414 42.7656H70.2303L47.7383 68.0051Z" fill="#FBBC33"/>
<path d="M221.902 31.7324H226.536V49.2432H221.902V31.7324ZM231.102 40.0559L239.908 49.2432H233.857L224.703 40.4149L233.373 31.7324H239.222L231.102 40.0559Z" fill="#0E3A57"/>
<path d="M199.77 49.2432V31.7324H204.403V42.8267L212.871 31.7324H217.504V49.2432H212.871V38.1489L204.403 49.2432H199.77Z" fill="#0E3A57"/>
<path d="M190.539 36.2083H185.872L185.805 38.1041C185.58 48.0765 182.454 49.8377 177.449 49.3553V45.0253C180.137 45.2048 181.228 43.9484 181.351 37.2179L181.442 31.7324H195.184V49.2432H190.551V36.2083H190.539Z" fill="#0E3A57"/>
<path d="M157.833 31.7324H162.466V49.2432H157.833V31.7324ZM167.032 40.0559L175.837 49.2432H169.788L160.634 40.4149L169.304 31.7324H175.152L167.032 40.0559Z" fill="#0E3A57"/>
<path d="M132.972 31.7324H137.167L143.33 38.0816L149.178 31.7324H153.248V49.2432H148.615V38.5416L143.251 44.1054H143.127L137.605 38.5416V49.2432H132.972V31.7324Z" fill="#0E3A57"/>
<path d="M120.59 31.3047C126.596 31.3047 130.465 35.2308 130.465 40.4919C130.465 45.7417 126.596 49.6791 120.59 49.6791C114.585 49.6791 110.717 45.7529 110.717 40.4919C110.717 35.2308 114.585 31.3047 120.59 31.3047ZM120.59 45.5061C123.447 45.5061 125.55 43.5206 125.55 40.4919C125.55 37.5305 123.413 35.5113 120.59 35.5113C117.847 35.5113 115.676 37.4519 115.676 40.4919C115.676 43.4084 117.767 45.5061 120.59 45.5061Z" fill="#0E3A57"/>
<path d="M83.141 45.2606H86.1101C87.2572 43.9257 88.7191 40.8521 89.1915 31.205L89.2477 26H105.892V45.2718H109.659V53.5055H105.105V49.9047H87.6958V53.5055H83.1299V45.2606H83.141ZM91.4632 45.2606H101.056V30.2403L94.0048 30.3188L93.8136 34.7161C93.2963 41.413 92.464 44.1164 91.4632 45.2606Z" fill="#0E3A57"/>
<defs>
<linearGradient id="paint0_linear_56_1047" x1="15.2542" y1="19.785" x2="55.8315" y2="57.0679" gradientUnits="userSpaceOnUse">
<stop stop-color="#6BBD3F"/>
<stop offset="0.427083" stop-color="#2CA465"/>
<stop offset="0.828125" stop-color="#148F82"/>
<stop offset="1" stop-color="#0276A2"/>
</linearGradient>
</defs>
</svg>
