<svg width="24" height="25" viewBox="0 0 24 25" fill="none" xmlns="http://www.w3.org/2000/svg">
<g clip-path="url(#clip0_45_3501)">
<path d="M15.5204 24.4999C14.8926 24.4999 14.251 24.441 13.5977 24.3224C10.7213 23.8004 7.71314 22.1012 5.12718 19.5378C2.52135 16.9548 0.774284 13.9426 0.207895 11.0561C-0.452737 7.68963 0.468079 4.61943 2.87081 2.17748C3.16328 1.88018 3.47286 1.59417 3.79092 1.32733C4.46355 0.763051 5.31576 0.47203 6.19004 0.507833C7.06784 0.543778 7.89319 0.906124 8.51404 1.52805C8.51807 1.53208 8.5221 1.5362 8.52608 1.54033L10.1117 3.18809C10.92 4.00191 11.2665 5.15873 11.0389 6.28448C10.8115 7.4093 10.0427 8.33902 8.98239 8.77142C8.2898 9.05392 7.84797 9.30478 7.72992 9.38964C6.85676 10.2793 6.30092 11.725 9.56687 14.9966C10.6267 16.0582 12.1964 17.4696 13.5861 17.4696C14.15 17.4696 14.6675 17.231 15.167 16.7405C15.232 16.6453 15.4566 16.2628 15.7461 15.5412C16.1762 14.47 17.1074 13.6928 18.237 13.4621C19.3624 13.2323 20.519 13.5793 21.3326 14.3904L22.9612 15.9665C22.9651 15.9702 22.969 15.974 22.9728 15.9778C23.5911 16.5973 23.953 17.4203 23.9916 18.2954C24.0302 19.1699 23.7426 20.0217 23.182 20.6937C22.9333 20.9919 22.6676 21.2829 22.3923 21.5587C20.4528 23.5015 18.1049 24.4998 15.5204 24.4999ZM6.04711 2.37702C5.67661 2.37702 5.3039 2.50491 4.99573 2.76341C4.72322 2.99206 4.45783 3.2372 4.20702 3.49213C2.23028 5.50116 1.50366 7.9246 2.04733 10.6951C2.54225 13.2173 4.10467 15.8848 6.4468 18.2065C8.76649 20.5059 11.4249 22.0229 13.9324 22.478C16.6813 22.9769 19.0813 22.2219 21.0657 20.2342C21.3017 19.9977 21.5294 19.7483 21.7426 19.4928C22.2836 18.8443 22.2439 17.906 21.6512 17.3071L20.0236 15.732C20.0197 15.7282 20.0158 15.7244 20.012 15.7206C19.639 15.347 19.1286 15.1931 18.612 15.2986C18.0938 15.4044 17.6833 15.7474 17.4858 16.2395C17.3547 16.5658 16.898 17.6601 16.5212 18.0375C15.6557 18.9044 14.6682 19.344 13.5861 19.344C11.5228 19.344 9.64536 17.7284 8.24022 16.3208C7.39626 15.4754 6.20363 14.1849 5.59286 12.7452C4.83944 10.9692 5.12765 9.34274 6.42647 8.04176C6.82087 7.64666 7.94067 7.17175 8.27447 7.03561C8.75937 6.83785 9.0973 6.42859 9.20157 5.91286C9.30664 5.39314 9.15255 4.88037 8.77877 4.50593C8.77474 4.5019 8.77071 4.49777 8.76672 4.49365L7.18204 2.84687C6.86768 2.53495 6.45875 2.37702 6.04711 2.37702Z" fill="#914948"/>
<path d="M23.0616 11.7053C22.582 11.7053 22.1731 11.339 22.1292 10.8521C21.7229 6.34391 18.156 2.77705 13.6479 2.37079C13.1324 2.32435 12.7521 1.86875 12.7985 1.3532C12.8449 0.837614 13.3009 0.457318 13.8161 0.503854C16.4265 0.739107 18.8881 1.89274 20.7477 3.75228C22.6073 5.61181 23.7609 8.07349 23.9961 10.6838C24.0426 11.1994 23.6623 11.655 23.1468 11.7014C23.1182 11.704 23.0898 11.7053 23.0616 11.7053ZM15.7593 11.7038C16.2504 11.54 16.5156 11.0092 16.3518 10.5181C15.9841 9.41617 15.1216 8.53102 14.0444 8.15025C13.5565 7.9777 13.0209 8.23353 12.8484 8.72161C12.6759 9.20965 12.9317 9.74515 13.4197 9.91766C13.9561 10.1073 14.3875 10.5535 14.5736 11.1114C14.7046 11.504 15.0702 11.7523 15.4626 11.7523C15.5608 11.7523 15.6609 11.7367 15.7593 11.7038ZM19.4415 11.6957C19.9539 11.6224 20.3098 11.1476 20.2366 10.6352C19.7671 7.35302 17.1469 4.73284 13.8647 4.26332C13.3529 4.19012 12.8775 4.54595 12.8042 5.05845C12.7309 5.57085 13.0868 6.04567 13.5993 6.11901C16.0623 6.47133 18.0286 8.43762 18.3809 10.9006C18.4478 11.3681 18.8487 11.7053 19.3075 11.7053C19.3517 11.7053 19.3965 11.7022 19.4415 11.6957Z" fill="#914948"/>
</g>
<defs>
<clipPath id="clip0_45_3501">
<rect width="24" height="24" fill="white" transform="translate(0 0.5)"/>
</clipPath>
</defs>
</svg>
