<svg width="45" height="45" viewBox="0 0 45 45" fill="none" xmlns="http://www.w3.org/2000/svg">
<circle cx="22.5" cy="22.5" r="22" stroke="#D5D7D9"/>
<g clip-path="url(#clip0_3_966)">
<path d="M25.287 31.9997C24.79 31.9997 24.282 31.9531 23.7649 31.8593C21.4877 31.446 19.1062 30.1008 17.059 28.0715C14.9961 26.0265 13.613 23.6419 13.1646 21.3567C12.6416 18.6916 13.3706 16.261 15.2727 14.3278C15.5043 14.0925 15.7493 13.866 16.0011 13.6548C16.5336 13.2081 17.2083 12.9777 17.9004 13.006C18.5954 13.0345 19.2488 13.3213 19.7403 13.8137C19.7435 13.8169 19.7467 13.8202 19.7498 13.8234L21.0051 15.1279C21.645 15.7722 21.9193 16.688 21.7391 17.5792C21.5591 18.4697 20.9504 19.2057 20.1111 19.548C19.5628 19.7717 19.213 19.9703 19.1195 20.0375C18.4283 20.7418 17.9882 21.8863 20.5738 24.4763C21.4128 25.3168 22.6555 26.4341 23.7557 26.4341C24.202 26.4341 24.6117 26.2452 25.0072 25.8569C25.0587 25.7815 25.2364 25.4787 25.4657 24.9075C25.8061 24.0594 26.5433 23.4441 27.4377 23.2615C28.3285 23.0796 29.2442 23.3543 29.8883 23.9964L31.1776 25.2441C31.1807 25.2471 31.1838 25.2501 31.1868 25.2531C31.6763 25.7435 31.9628 26.3951 31.9933 27.0879C32.0239 27.7802 31.7963 28.4545 31.3524 28.9865C31.1555 29.2226 30.9452 29.4529 30.7272 29.6713C29.1918 31.2093 27.3331 31.9997 25.287 31.9997ZM17.7873 14.4858C17.494 14.4858 17.1989 14.587 16.955 14.7917C16.7392 14.9727 16.5291 15.1668 16.3306 15.3686C14.7656 16.9591 14.1904 18.8776 14.6208 21.071C15.0126 23.0676 16.2495 25.1795 18.1037 27.0175C19.9401 28.8379 22.0447 30.0388 24.0298 30.399C26.206 30.794 28.106 30.1964 29.677 28.6227C29.8639 28.4355 30.0441 28.238 30.2129 28.0358C30.6412 27.5224 30.6097 26.7796 30.1406 26.3055L28.852 25.0585C28.8489 25.0555 28.8459 25.0525 28.8429 25.0495C28.5475 24.7537 28.1435 24.6319 27.7345 24.7154C27.3242 24.7991 26.9993 25.0706 26.8429 25.4602C26.7392 25.7186 26.3776 26.5849 26.0793 26.8837C25.3941 27.57 24.6123 27.918 23.7557 27.918C22.1222 27.918 20.6359 26.6389 19.5235 25.5246C18.8554 24.8554 17.9112 23.8337 17.4277 22.694C16.8312 21.288 17.0594 20.0003 18.0876 18.9704C18.3999 18.6576 19.2864 18.2816 19.5506 18.1739C19.9345 18.0173 20.202 17.6933 20.2846 17.285C20.3678 16.8736 20.2458 16.4676 19.9499 16.1712C19.9467 16.168 19.9435 16.1647 19.9403 16.1615L18.6858 14.8578C18.4369 14.6108 18.1132 14.4858 17.7873 14.4858Z" fill="#222222"/>
<path d="M31.2571 21.8709C30.8774 21.8709 30.5537 21.581 30.5189 21.1954C30.1973 17.6265 27.3735 14.8027 23.8046 14.4811C23.3965 14.4443 23.0954 14.0837 23.1322 13.6755C23.1689 13.2673 23.5299 12.9663 23.9378 13.0031C26.0043 13.1894 27.9531 14.1027 29.4253 15.5748C30.8974 17.0469 31.8107 18.9957 31.9969 21.0623C32.0337 21.4704 31.7327 21.8311 31.3245 21.8679C31.3019 21.8699 31.2794 21.8709 31.2571 21.8709ZM25.4761 21.8698C25.8649 21.7401 26.0749 21.3198 25.9452 20.9311C25.6541 20.0587 24.9712 19.358 24.1185 19.0565C23.7322 18.9199 23.3082 19.1224 23.1717 19.5088C23.0351 19.8952 23.2376 20.3191 23.6239 20.4557C24.0486 20.6058 24.3901 20.9591 24.5375 21.4007C24.6412 21.7115 24.9306 21.9081 25.2412 21.9081C25.319 21.9081 25.3982 21.8958 25.4761 21.8698ZM28.3912 21.8634C28.7969 21.8053 29.0786 21.4294 29.0206 21.0237C28.6489 18.4254 26.5746 16.3511 23.9763 15.9794C23.571 15.9214 23.1947 16.2031 23.1366 16.6088C23.0787 17.0145 23.3604 17.3904 23.7661 17.4484C25.716 17.7274 27.2727 19.284 27.5516 21.2339C27.6045 21.604 27.9219 21.8709 28.2851 21.8709C28.3201 21.8709 28.3555 21.8684 28.3912 21.8634Z" fill="#222222"/>
</g>
<defs>
<clipPath id="clip0_3_966">
<rect width="19" height="19" fill="white" transform="translate(13 13)"/>
</clipPath>
</defs>
</svg>
