<svg width="28" height="28" viewBox="0 0 28 28" fill="none" xmlns="http://www.w3.org/2000/svg">
<g clip-path="url(#clip0_45_3173)">
<path d="M22.5312 19.2484C19.4646 19.2484 17.0625 17.5669 17.0625 15.4203C17.0625 13.2737 19.4646 11.5922 22.5312 11.5922C25.5979 11.5922 28 13.2737 28 15.4203C28 17.5669 25.5979 19.2484 22.5312 19.2484ZM22.5312 13.7797C21.5789 13.7797 20.6626 14.011 20.0173 14.4143C19.5297 14.719 19.25 15.0857 19.25 15.4203C19.25 15.7549 19.5297 16.1215 20.0173 16.4263C20.6626 16.8297 21.5789 17.0609 22.5312 17.0609C23.4836 17.0609 24.3999 16.8297 25.0452 16.4263C25.5328 16.1216 25.8125 15.7549 25.8125 15.4203C25.8125 15.0857 25.5328 14.7191 25.0452 14.4143C24.3999 14.011 23.4836 13.7797 22.5312 13.7797ZM15.0391 26.9047C15.0391 26.3006 14.5494 25.8109 13.9453 25.8109H6.5625C4.15013 25.8109 2.1875 23.8483 2.1875 21.4359V10.2668C2.1875 9.09821 2.64255 7.99954 3.46894 7.17321L7.17478 3.46731C8.88065 1.7615 11.6562 1.76155 13.359 3.46425L17.0389 7.1731C17.5713 7.70554 17.9592 8.37043 18.1607 9.09575C18.3224 9.67779 18.9253 10.0184 19.5073 9.85689C20.0893 9.69523 20.4301 9.09236 20.2684 8.51032C19.9662 7.42226 19.3844 6.42498 18.5888 5.62933L14.9088 1.92042C12.3501 -0.638242 8.18677 -0.638133 5.628 1.92042L1.9221 5.62638C0.682609 6.86598 0 8.51388 0 10.2668V21.4359C0 25.0544 2.94394 27.9984 6.5625 27.9984H13.9453C14.5494 27.9984 15.0391 27.5087 15.0391 26.9047ZM10.2812 7.43593C9.52618 7.43593 8.91406 8.04805 8.91406 8.80312C8.91406 9.55819 9.52618 10.1703 10.2812 10.1703C11.0363 10.1703 11.6484 9.55819 11.6484 8.80312C11.6484 8.04805 11.0363 7.43593 10.2812 7.43593Z" fill="#914948"/>
<path d="M22.4766 27.9984C20.5953 27.9984 18.8137 27.4584 17.46 26.478C16.9708 26.1237 16.8615 25.4398 17.2157 24.9506C17.5701 24.4613 18.254 24.352 18.7432 24.7063C20.7669 26.1721 24.1863 26.1721 26.21 24.7063C26.6993 24.3519 27.3831 24.4613 27.7375 24.9506C28.0918 25.4398 27.9824 26.1236 27.4932 26.478C26.1394 27.4584 24.3578 27.9984 22.4766 27.9984ZM27.4931 22.103C27.9823 21.7487 28.0917 21.0648 27.7374 20.5756C27.3831 20.0863 26.6993 19.977 26.21 20.3313C24.1862 21.7971 20.7669 21.7971 18.7431 20.3313C18.254 19.977 17.5701 20.0863 17.2157 20.5756C16.8614 21.0648 16.9707 21.7486 17.46 22.103C18.8137 23.0834 20.5953 23.6234 22.4765 23.6234C24.3578 23.6234 26.1394 23.0834 27.4931 22.103Z" fill="#914948"/>
</g>
<defs>
<clipPath id="clip0_45_3173">
<rect width="28" height="28" fill="white"/>
</clipPath>
</defs>
</svg>
