<svg width="20" height="20" viewBox="0 0 20 20" fill="none" xmlns="http://www.w3.org/2000/svg">
<g clip-path="url(#clip0_45_3190)">
<path d="M17.6562 4.375C17.2248 4.375 16.875 4.72477 16.875 5.15625C16.875 5.58773 17.2248 5.9375 17.6562 5.9375C18.087 5.9375 18.4375 6.28797 18.4375 6.71875V8.28125C18.4375 8.71273 18.7873 9.0625 19.2188 9.0625C19.6502 9.0625 20 8.71273 20 8.28125V6.71875C20 5.42641 18.9486 4.375 17.6562 4.375Z" fill="#914948"/>
<path d="M19.2188 15.3125C18.7873 15.3125 18.4375 15.6623 18.4375 16.0938V17.6562C18.4375 18.087 18.087 18.4375 17.6562 18.4375H16.0938C15.6623 18.4375 15.3125 18.7873 15.3125 19.2188C15.3125 19.6502 15.6623 20 16.0938 20H17.6562C18.9486 20 20 18.9486 20 17.6562V16.0938C20 15.6623 19.6502 15.3125 19.2188 15.3125Z" fill="#914948"/>
<path d="M19.2188 10.625C18.7873 10.625 18.4375 10.9748 18.4375 11.4062V12.9688C18.4375 13.4002 18.7873 13.75 19.2188 13.75C19.6502 13.75 20 13.4002 20 12.9688V11.4062C20 10.9748 19.6502 10.625 19.2188 10.625Z" fill="#914948"/>
<path d="M8.28125 20C8.71273 20 9.0625 19.6502 9.0625 19.2188C9.0625 18.7873 8.71273 18.4375 8.28125 18.4375H6.71875C6.28797 18.4375 5.9375 18.087 5.9375 17.6562C5.9375 17.2248 5.58773 16.875 5.15625 16.875C4.72477 16.875 4.375 17.2248 4.375 17.6562C4.375 18.9486 5.42641 20 6.71875 20H8.28125Z" fill="#914948"/>
<path d="M11.4062 20H12.9688C13.4002 20 13.75 19.6502 13.75 19.2188C13.75 18.7873 13.4002 18.4375 12.9688 18.4375H11.4062C10.9748 18.4375 10.625 18.7873 10.625 19.2188C10.625 19.6502 10.9748 20 11.4062 20Z" fill="#914948"/>
<path d="M12.9688 0H2.34375C1.05141 0 0 1.05145 0 2.34375V12.9688C0 14.2611 1.05141 15.3125 2.34375 15.3125H12.9688C14.2611 15.3125 15.3125 14.2611 15.3125 12.9688V2.34375C15.3125 1.05145 14.2611 0 12.9688 0ZM13.75 12.9688C13.75 13.3995 13.3995 13.75 12.9688 13.75H2.34375C1.91297 13.75 1.5625 13.3995 1.5625 12.9688V2.34375C1.5625 1.91297 1.91297 1.5625 2.34375 1.5625H12.9688C13.3995 1.5625 13.75 1.91297 13.75 2.34375V12.9688Z" fill="#914948"/>
</g>
<defs>
<clipPath id="clip0_45_3190">
<rect width="20" height="20" fill="white"/>
</clipPath>
</defs>
</svg>
