<svg width="28" height="28" viewBox="0 0 28 28" fill="none" xmlns="http://www.w3.org/2000/svg">
<g clip-path="url(#clip0_2018_1400)">
<path d="M12.9061 25.8125H5.24989C4.64581 25.8125 4.15614 26.3022 4.15614 26.9062C4.15614 27.5103 4.64581 28 5.24989 28H13.9999C14.604 28 15.0936 27.5103 15.0936 26.9062V24.0625H16.1874C17.9967 24.0625 19.4686 22.5905 19.4686 20.7812V20.3265C19.4686 19.7224 18.979 19.2328 18.3749 19.2328C17.7708 19.2328 17.2811 19.7224 17.2811 20.3265V20.7812C17.2811 21.3843 16.7905 21.875 16.1874 21.875H15.0936V17.5H20.3218C23.2675 17.5 25.7626 15.315 26.0048 12.5243C26.2199 10.2758 25.045 8.25902 23.1062 7.18145C22.2663 6.71464 21.5856 6.21015 21.2972 5.30813C20.2737 2.13314 17.3412 0 13.9999 0C10.6586 0 7.72609 2.13314 6.70267 5.30808C6.70119 5.31267 6.69971 5.31727 6.69829 5.32191C6.47478 6.04816 5.87639 6.66903 4.91969 7.16734C3.12578 8.09987 1.76701 10.1411 1.99506 12.5242C2.19959 14.8811 4.01106 16.8059 6.34364 17.3474V18.5938C6.34364 20.403 7.81561 21.875 9.62489 21.875C10.229 21.875 10.7186 21.3853 10.7186 20.7812C10.7186 20.1772 10.229 19.6875 9.62489 19.6875C9.0218 19.6875 8.53114 19.1968 8.53114 18.5938V17.5H12.9061V25.8125ZM7.67796 15.3125C5.88673 15.3125 4.31485 13.9753 4.17403 12.3316C4.1737 12.3276 4.17331 12.3236 4.17293 12.3196C4.04053 10.9516 4.76842 9.75762 5.94431 9.10005C7.40748 8.33427 8.39005 7.25337 8.78664 5.97297C9.51951 3.70847 11.6137 2.1875 13.9999 2.1875C16.3861 2.1875 18.4802 3.70847 19.2131 5.97297C19.6097 7.25342 20.5923 8.33432 22.0554 9.10005C23.2256 9.75445 23.9595 10.9491 23.8268 12.3196C23.8264 12.3236 23.826 12.3276 23.8257 12.3316C23.6849 13.9753 22.1131 15.3125 20.3218 15.3125H15.0936V14.2188C15.0936 13.6147 14.6039 13.125 13.9998 13.125C13.3958 13.125 12.9061 13.6147 12.9061 14.2188V15.3125H7.67796Z" fill="#914948"/>
<path d="M18.3749 25.8125C17.7708 25.8125 17.2811 26.3022 17.2811 26.9062C17.2811 27.5103 17.7708 28 18.3749 28H22.7499C23.354 28 23.8436 27.5103 23.8436 26.9062C23.8436 26.3022 23.354 25.8125 22.7499 25.8125H18.3749Z" fill="#914948"/>
<path d="M15.414 6.88287L13.9999 8.29698L12.5858 6.88287C12.1586 6.45571 11.4661 6.45571 11.039 6.88287C10.6119 7.31004 10.6118 8.00254 11.039 8.42965L13.2265 10.6172C13.44 10.8307 13.7199 10.9375 13.9999 10.9375C14.2798 10.9375 14.5597 10.8307 14.7733 10.6172L16.9608 8.42965C17.3879 8.00249 17.3879 7.30998 16.9608 6.88287C16.5336 6.45576 15.8411 6.45571 15.414 6.88287Z" fill="#914948"/>
</g>
<defs>
<clipPath id="clip0_2018_1400">
<rect width="28" height="28" fill="white"/>
</clipPath>
</defs>
</svg>
