<svg width="28" height="28" viewBox="0 0 28 28" fill="none" xmlns="http://www.w3.org/2000/svg">
<g clip-path="url(#clip0_2018_1023)">
<path d="M14 6.5625C14.6041 6.5625 15.0938 6.07281 15.0938 5.46875C15.0938 4.86469 14.6041 4.375 14 4.375C13.3959 4.375 12.9062 4.86469 12.9062 5.46875C12.9062 6.07281 13.3959 6.5625 14 6.5625Z" fill="#914948"/>
<path d="M25.8125 9.29102C27.0855 8.83952 28 7.62377 28 6.1979V4.0104C28 2.20112 26.528 0.729148 24.7188 0.729148H16.0656C15.4889 0.259383 14.7678 0 14 0C13.2322 0 12.5111 0.259383 11.9344 0.729148H3.28125C1.47197 0.729148 0 2.20112 0 4.0104V6.1979C0 7.62377 0.914484 8.83947 2.1875 9.29102V15.0938H1.09375C0.489672 15.0938 0 15.5834 0 16.1875C0 16.7916 0.489672 17.2812 1.09375 17.2812H2.1875V25.8125H1.09375C0.489672 25.8125 0 26.3022 0 26.9062C0 27.5103 0.489672 28 1.09375 28H26.9062C27.5103 28 28 27.5103 28 26.9062C28 26.3022 27.5103 25.8125 26.9062 25.8125H25.8125V20.5625C25.8125 19.9584 25.3228 19.4688 24.7188 19.4688C24.1147 19.4688 23.625 19.9584 23.625 20.5625V21.4375H21.6562C21.0522 21.4375 20.5625 21.9272 20.5625 22.5312C20.5625 23.1353 21.0522 23.625 21.6562 23.625H23.625V25.8125H18.375V22.5312C18.375 20.7854 16.9644 19.4688 15.0938 19.4688H12.9062C11.0356 19.4688 9.625 20.7854 9.625 22.5312V25.8125H4.375V23.625H6.34375C6.94783 23.625 7.4375 23.1353 7.4375 22.5312C7.4375 21.9272 6.94783 21.4375 6.34375 21.4375H4.375V17.2812H26.9062C27.5103 17.2812 28 16.7916 28 16.1875C28 15.5834 27.5103 15.0938 26.9062 15.0938H25.8125V9.29102ZM11.8125 22.5312C11.8125 21.8854 12.4017 21.6562 12.9062 21.6562H15.0938C15.5984 21.6562 16.1875 21.8854 16.1875 22.5312V25.8125H11.8125V22.5312ZM24.7188 2.91665C25.3218 2.91665 25.8125 3.4073 25.8125 4.0104V6.1979C25.8125 6.80099 25.3218 7.29165 24.7188 7.29165H21.6562C21.3138 7.29165 20.9867 7.12813 20.7812 6.85415L17.8281 2.91665H24.7188ZM2.1875 4.0104C2.1875 3.4073 2.67816 2.91665 3.28125 2.91665H10.1719L7.21875 6.85415C7.01329 7.12808 6.6862 7.29165 6.34375 7.29165H3.28125C2.67816 7.29165 2.1875 6.80099 2.1875 6.1979V4.0104ZM16.1875 15.0938H11.8125V12.0312C11.8125 11.4282 12.3032 10.9375 12.9062 10.9375H15.0938C15.6968 10.9375 16.1875 11.4282 16.1875 12.0312V15.0938ZM18.375 15.0938V12.0312C18.375 10.222 16.903 8.75 15.0938 8.75H12.9062C11.097 8.75 9.625 10.222 9.625 12.0312V15.0938H4.375V13.125H6.34375C6.94783 13.125 7.4375 12.6353 7.4375 12.0312C7.4375 11.4272 6.94783 10.9375 6.34375 10.9375H4.375V9.47915H6.34375C7.37105 9.47915 8.35237 8.98849 8.96875 8.16665L13.125 2.625C13.3335 2.34697 13.6525 2.1875 14 2.1875C14.3475 2.1875 14.6665 2.34697 14.875 2.625L19.0312 8.16665C19.6476 8.98849 20.6289 9.47915 21.6562 9.47915H23.625V10.9375H21.6562C21.0522 10.9375 20.5625 11.4272 20.5625 12.0312C20.5625 12.6353 21.0522 13.125 21.6562 13.125H23.625V15.0938H18.375Z" fill="#914948"/>
</g>
<defs>
<clipPath id="clip0_2018_1023">
<rect width="28" height="28" fill="white"/>
</clipPath>
</defs>
</svg>
