<svg width="28" height="28" viewBox="0 0 28 28" fill="none" xmlns="http://www.w3.org/2000/svg">
<g clip-path="url(#clip0_2018_914)">
<path d="M5.91604 23.1776C6.19603 23.1776 6.47608 23.0708 6.68977 22.8571L8.23714 21.3098C8.66441 20.8824 8.66441 20.1897 8.23714 19.7624C7.80982 19.3351 7.11699 19.3351 6.68972 19.7624L5.14235 21.3098C4.71508 21.7371 4.71508 22.4299 5.14235 22.8571C5.35599 23.0708 5.63604 23.1776 5.91604 23.1776Z" fill="#914948"/>
<path d="M23.9431 0.963137C22.6603 -0.319607 20.584 -0.31988 19.301 0.963137C17.4126 2.8515 17.2082 5.74655 18.6042 7.84915L12.8794 13.5723C12.452 13.9996 12.452 14.6923 12.8792 15.1197C13.0928 15.3335 13.3728 15.4403 13.653 15.4403C13.9329 15.4403 14.2129 15.3335 14.4266 15.12L20.1523 9.39592C22.2673 10.7949 25.1628 10.5751 27.0379 8.70008C28.3207 7.41723 28.3208 5.34089 27.0379 4.05793L23.9431 0.963137ZM25.4906 7.15272C24.2108 8.4324 22.1287 8.43251 20.8488 7.15315C20.8487 7.15305 20.8487 7.15294 20.8486 7.15283C20.8485 7.15277 20.8484 7.15272 20.8483 7.15261C19.5657 5.86981 19.5654 3.79352 20.8484 2.51056C21.276 2.08296 21.9682 2.08291 22.3958 2.51056L25.4905 5.60529C25.9171 6.03191 25.9171 6.72605 25.4906 7.15272Z" fill="#914948"/>
<path d="M2.87655 27.6977C3.01601 27.7256 3.15956 27.7523 3.31657 27.7794C4.16925 27.9259 5.00503 27.999 5.81986 27.999C6.92781 27.999 7.99692 27.8637 9.01706 27.5935C11.0211 27.0628 12.8094 26.0216 14.3323 24.4987C15.6642 23.1668 15.6642 20.9997 14.3323 19.6678L8.33157 13.6671C7.68634 13.0219 6.82851 12.6665 5.91609 12.6665C5.00366 12.6665 4.14584 13.0218 3.50061 13.6671C1.9777 15.19 0.93649 16.9783 0.405821 18.9823C-0.097714 20.8838 -0.132782 22.9497 0.301656 25.1226C0.562286 26.4262 1.57313 27.437 2.87655 27.6977ZM2.52122 19.5425C2.95167 17.9168 3.80178 16.4606 5.04803 15.2144C5.27989 14.9826 5.58817 14.8548 5.91609 14.8548C6.24401 14.8548 6.55229 14.9825 6.78414 15.2144L12.7849 21.2152C13.2636 21.6939 13.2636 22.4727 12.7849 22.9514C11.5388 24.1975 10.0826 25.0477 8.45685 25.4782C6.99231 25.8661 5.38755 25.9148 3.68826 25.6229C3.5516 25.5993 3.42665 25.5761 3.30596 25.5519C2.87141 25.4651 2.53435 25.1281 2.44753 24.6936C2.07913 22.8512 2.10391 21.1181 2.52122 19.5425Z" fill="#914948"/>
</g>
<defs>
<clipPath id="clip0_2018_914">
<rect width="28" height="28" fill="white"/>
</clipPath>
</defs>
</svg>
