<svg width="28" height="28" viewBox="0 0 28 28" fill="none" xmlns="http://www.w3.org/2000/svg">
<g clip-path="url(#clip0_45_3278)">
<path d="M9.67969 2.1875H6.37509C5.92364 0.91432 4.70723 0 3.28125 0C-0.418305 0.0700547 -1.23687 5.10836 2.1875 6.37509V9.625C2.24525 11.0762 4.31774 11.0751 4.375 9.625V6.37509C5.30589 6.04499 6.04499 5.30595 6.37509 4.375H9.67969C11.1309 4.31725 11.1298 2.24476 9.67969 2.1875ZM3.28125 4.375C2.67816 4.375 2.1875 3.88434 2.1875 3.28125C2.2476 1.83023 4.31512 1.83066 4.375 3.28125C4.375 3.88434 3.88434 4.375 3.28125 4.375ZM18.2656 4.375H21.6249C21.955 5.30589 22.6941 6.04499 23.625 6.37509V9.625C23.6828 11.0762 25.7552 11.0751 25.8125 9.625V6.37509C27.0857 5.92364 28 4.70723 28 3.28125C27.9299 -0.418305 22.8916 -1.23687 21.6249 2.1875H18.2656C16.8144 2.24525 16.8155 4.31774 18.2656 4.375ZM24.7188 2.1875C25.3218 2.1875 25.8125 2.67816 25.8125 3.28125C25.7524 4.73227 23.6849 4.73184 23.625 3.28125C23.625 2.67816 24.1157 2.1875 24.7188 2.1875ZM25.8125 21.6249V18.2656C25.7547 16.8144 23.6823 16.8155 23.625 18.2656V21.6249C22.6941 21.955 21.955 22.6941 21.6249 23.625H18.375C16.9238 23.6828 16.9249 25.7552 18.375 25.8125H21.6249C22.0764 27.0857 23.2928 28 24.7188 28C28.4183 27.9299 29.2369 22.8916 25.8125 21.6249ZM24.7188 25.8125C24.1157 25.8125 23.625 25.3218 23.625 24.7188C23.6851 23.2677 25.7527 23.2682 25.8125 24.7188C25.8125 25.3218 25.3218 25.8125 24.7188 25.8125ZM9.67969 23.625H6.37509C6.04499 22.6941 5.30595 21.955 4.375 21.6249V18.3203C4.31725 16.8691 2.24476 16.8702 2.1875 18.3203V21.6249C0.91432 22.0764 0 23.2928 0 24.7188C0.0700547 28.4183 5.10836 29.2369 6.37509 25.8125H9.67969C11.1309 25.7547 11.1298 23.6823 9.67969 23.625ZM3.28125 25.8125C2.67816 25.8125 2.1875 25.3218 2.1875 24.7188C2.2476 23.2677 4.31517 23.2682 4.375 24.7188C4.375 25.3218 3.88434 25.8125 3.28125 25.8125Z" fill="#914948"/>
<path d="M4.64844 14.1094C4.64844 14.8644 4.03632 15.4766 3.28125 15.4766C2.52618 15.4766 1.91406 14.8644 1.91406 14.1094C1.91406 13.3543 2.52618 12.7422 3.28125 12.7422C4.03632 12.7422 4.64844 13.3543 4.64844 14.1094ZM13.9453 4.64844C14.7004 4.64844 15.3125 4.03632 15.3125 3.28125C15.3125 2.52618 14.7004 1.91406 13.9453 1.91406C13.1902 1.91406 12.5781 2.52618 12.5781 3.28125C12.5781 4.03632 13.1902 4.64844 13.9453 4.64844ZM17.7188 13.125H15.2578V10.6641C15.2578 10.06 14.7681 9.57031 14.1641 9.57031C13.56 9.57031 13.0703 10.06 13.0703 10.6641V13.125H10.6094C10.0053 13.125 9.51562 13.6147 9.51562 14.2188C9.51562 14.8228 10.0053 15.3125 10.6094 15.3125H13.0703V17.7734C13.0703 18.3775 13.56 18.8672 14.1641 18.8672C14.7681 18.8672 15.2578 18.3775 15.2578 17.7734V15.3125H17.7188C18.3228 15.3125 18.8125 14.8228 18.8125 14.2188C18.8125 13.6147 18.3228 13.125 17.7188 13.125ZM24.7188 12.7422C23.9637 12.7422 23.3516 13.3543 23.3516 14.1094C23.3516 14.8644 23.9637 15.4766 24.7188 15.4766C25.4738 15.4766 26.0859 14.8644 26.0859 14.1094C26.0859 13.3543 25.4738 12.7422 24.7188 12.7422ZM13.9453 23.3516C13.1902 23.3516 12.5781 23.9637 12.5781 24.7188C12.5781 25.4738 13.1902 26.0859 13.9453 26.0859C14.7004 26.0859 15.3125 25.4738 15.3125 24.7188C15.3125 23.9637 14.7004 23.3516 13.9453 23.3516Z" fill="#914948"/>
</g>
<defs>
<clipPath id="clip0_45_3278">
<rect width="28" height="28" fill="white"/>
</clipPath>
</defs>
</svg>
