<svg width="28" height="28" viewBox="0 0 28 28" fill="none" xmlns="http://www.w3.org/2000/svg">
<g clip-path="url(#clip0_2018_264)">
<path d="M14 8.75C13.3959 8.75 12.9062 8.26033 12.9062 7.65625C12.9062 5.84697 14.3782 4.375 16.1875 4.375H20.5625C21.1656 4.375 21.6562 3.88434 21.6562 3.28125C21.6562 2.67816 21.1656 2.1875 20.5625 2.1875C19.9584 2.1875 19.4688 1.69783 19.4688 1.09375C19.4688 0.489672 19.9584 0 20.5625 0C22.3718 0 23.8438 1.47197 23.8438 3.28125C23.8438 5.09053 22.3718 6.5625 20.5625 6.5625H16.1875C15.5844 6.5625 15.0938 7.05316 15.0938 7.65625C15.0938 8.26033 14.6041 8.75 14 8.75Z" fill="#914948"/>
<path d="M26.9062 25.8125H21.6562V16.8751C22.9294 16.4237 23.8438 15.2072 23.8438 13.7812C23.8438 11.972 22.3718 10.5 20.5625 10.5H7.4375C5.62822 10.5 4.15625 11.972 4.15625 13.7812C4.15625 15.2071 5.07073 16.4228 6.34375 16.8744V25.8125H1.09375C0.489672 25.8125 0 26.3022 0 26.9062C0 27.5103 0.489672 28 1.09375 28H26.9062C27.5103 28 28 27.5103 28 26.9062C28 26.3022 27.5103 25.8125 26.9062 25.8125ZM8.53125 21.4375H9.625C10.2291 21.4375 10.7188 20.9478 10.7188 20.3438C10.7188 19.7397 10.2291 19.25 9.625 19.25H8.53125V17.0625H16.1875C16.7916 17.0625 17.2812 16.5728 17.2812 15.9688C17.2812 15.3647 16.7916 14.875 16.1875 14.875H7.4375C6.83441 14.875 6.34375 14.3843 6.34375 13.7812C6.34375 13.1782 6.83441 12.6875 7.4375 12.6875H20.5625C21.1656 12.6875 21.6562 13.1782 21.6562 13.7812C21.6562 14.3843 21.1656 14.875 20.5625 14.875C19.9584 14.875 19.4688 15.3647 19.4688 15.9688V19.25H18.375C17.7709 19.25 17.2812 19.7397 17.2812 20.3438C17.2812 20.9478 17.7709 21.4375 18.375 21.4375H19.4688V25.8125H8.53125V21.4375Z" fill="#914948"/>
<path d="M15.0938 21.4375H12.9062C12.3022 21.4375 11.8125 21.9272 11.8125 22.5312C11.8125 23.1353 12.3022 23.625 12.9062 23.625H15.0938C15.6978 23.625 16.1875 23.1353 16.1875 22.5312C16.1875 21.9272 15.6978 21.4375 15.0938 21.4375Z" fill="#914948"/>
</g>
<defs>
<clipPath id="clip0_2018_264">
<rect width="28" height="28" fill="white"/>
</clipPath>
</defs>
</svg>
