<svg width="28" height="28" viewBox="0 0 28 28" fill="none" xmlns="http://www.w3.org/2000/svg">
<g clip-path="url(#clip0_2018_1159)">
<path d="M1.14853 28.0001C1.12283 28.0001 1.09723 27.9999 1.07131 27.9993C0.467398 27.987 -0.0121563 27.4873 0.000203114 26.8834C0.0125625 26.2795 0.512844 25.8014 1.1161 25.8123C1.49241 25.82 1.82184 25.7067 2.20701 25.1289C2.89902 24.0909 4.05698 23.4712 5.30456 23.4712C6.55215 23.4712 7.7101 24.0909 8.40217 25.1289C8.6918 25.5634 9.15746 25.8126 9.67962 25.8126C10.2018 25.8126 10.6674 25.5634 10.9571 25.1289C11.6491 24.0909 12.807 23.4712 14.0546 23.4712C15.3022 23.4712 16.4602 24.0909 17.1522 25.1289C17.4419 25.5634 17.9075 25.8126 18.4297 25.8126C18.9518 25.8126 19.4174 25.5634 19.7071 25.1289C20.3991 24.0909 21.5571 23.4712 22.8047 23.4712C24.0523 23.4712 25.2102 24.0909 25.9023 25.1289C26.275 25.6881 26.5714 25.805 26.9287 25.8123C27.5326 25.8247 28.0122 26.3242 27.9998 26.9282C27.9876 27.5245 27.5004 27.9995 26.9068 27.9995C26.8992 27.9995 26.8916 27.9995 26.884 27.9993C25.7262 27.9756 24.8097 27.4336 24.0822 26.3424C23.7925 25.9079 23.3269 25.6587 22.8047 25.6587C22.2826 25.6587 21.817 25.908 21.5273 26.3424C20.8352 27.3804 19.6772 28.0001 18.4296 28.0001C17.182 28.0001 16.0241 27.3804 15.3321 26.3424C15.0424 25.9079 14.5768 25.6587 14.0546 25.6587C13.5325 25.6587 13.0669 25.908 12.7772 26.3424C12.0852 27.3804 10.9272 28.0001 9.67962 28.0001C8.43203 28.0001 7.27408 27.3804 6.58206 26.3424C6.29244 25.9079 5.82677 25.6587 5.30462 25.6587C4.78246 25.6587 4.31685 25.908 4.02723 26.3424C3.29365 27.4427 2.32535 28.0001 1.14853 28.0001Z" fill="#914948"/>
<path d="M22.5312 0H5.46875C2.45328 0 0 2.45328 0 5.46875C0 6.07283 0.489672 6.5625 1.09375 6.5625H4.375V14.7202H3.28125C2.67717 14.7202 2.1875 15.2099 2.1875 15.814C2.1875 16.4181 2.67717 16.9077 3.28125 16.9077H4.375V20.1902C4.375 20.7943 4.86467 21.284 5.46875 21.284C6.07283 21.284 6.5625 20.7943 6.5625 20.1902V16.9077H21.4375V20.1902C21.4375 20.7943 21.9272 21.284 22.5312 21.284C23.1353 21.284 23.625 20.7943 23.625 20.1902V16.9077H24.7188C25.3228 16.9077 25.8125 16.4181 25.8125 15.814C25.8125 15.2099 25.3228 14.7202 24.7188 14.7202H23.625V9.84375C23.625 9.23967 23.1353 8.75 22.5312 8.75C21.9272 8.75 21.4375 9.23967 21.4375 9.84375V14.7202H18.375V12.0312C18.375 10.222 16.903 8.75 15.0938 8.75H12.9062C11.097 8.75 9.625 10.222 9.625 12.0312V14.7202H6.5625V6.5625H26.9062C27.5103 6.5625 28 6.07283 28 5.46875C28 2.45328 25.5467 0 22.5312 0ZM11.8125 12.0312C11.8125 11.4282 12.3032 10.9375 12.9062 10.9375H15.0938C15.6968 10.9375 16.1875 11.4282 16.1875 12.0312V14.7202H11.8125V12.0312ZM2.37491 4.375C2.82636 3.10182 4.04277 2.1875 5.46875 2.1875H22.5312C23.9572 2.1875 25.1736 3.10182 25.6251 4.375H2.37491Z" fill="#914948"/>
</g>
<defs>
<clipPath id="clip0_2018_1159">
<rect width="28" height="28" fill="white"/>
</clipPath>
</defs>
</svg>
