<svg width="28" height="28" viewBox="0 0 28 28" fill="none" xmlns="http://www.w3.org/2000/svg">
<g clip-path="url(#clip0_2018_486)">
<path d="M26.7186 5.65638C25.8922 4.83005 24.7936 4.375 23.625 4.375V3.28125C23.625 1.47197 22.153 0 20.3438 0H3.28125C1.47197 0 0 1.47197 0 3.28125V5.46875C0 7.27803 1.47197 8.75 3.28125 8.75H20.3438C21.7696 8.75 22.9854 7.83552 23.4369 6.5625H23.6249C24.2093 6.5625 24.7586 6.79 25.1718 7.20316C25.5849 7.61633 25.8125 8.16566 25.8125 8.75C25.8125 9.95619 24.8312 10.9375 23.625 10.9375H15.9688C14.1595 10.9375 12.6875 12.4095 12.6875 14.2188C12.6875 14.8228 13.1772 15.3125 13.7812 15.3125C14.3853 15.3125 14.875 14.8228 14.875 14.2188C14.875 13.6157 15.3657 13.125 15.9688 13.125H23.625C26.0374 13.125 28 11.1624 28 8.75C28 7.58138 27.5449 6.48271 26.7186 5.65638ZM20.3438 6.5625H3.28125C2.67816 6.5625 2.1875 6.07184 2.1875 5.46875V3.28125C2.1875 2.67816 2.67816 2.1875 3.28125 2.1875H20.3438C20.9468 2.1875 21.4375 2.67816 21.4375 3.28125V5.46875C21.4375 6.07184 20.9468 6.5625 20.3438 6.5625Z" fill="#914948"/>
<path d="M13.7812 28C11.972 28 10.5 26.528 10.5 24.7188V20.7812C10.5 18.972 11.972 17.5 13.7812 17.5C15.5905 17.5 17.0625 18.972 17.0625 20.7812V24.7188C17.0625 26.528 15.5905 28 13.7812 28ZM13.7812 19.6875C13.1782 19.6875 12.6875 20.1782 12.6875 20.7812V24.7188C12.6875 25.3218 13.1782 25.8125 13.7812 25.8125C14.3843 25.8125 14.875 25.3218 14.875 24.7188V20.7812C14.875 20.1782 14.3843 19.6875 13.7812 19.6875Z" fill="#914948"/>
</g>
<defs>
<clipPath id="clip0_2018_486">
<rect width="28" height="28" fill="white"/>
</clipPath>
</defs>
</svg>
