<svg width="45" height="45" viewBox="0 0 45 45" fill="none" xmlns="http://www.w3.org/2000/svg">
<g clip-path="url(#clip0_3_984)">
<path d="M22.5 45C34.9264 45 45 34.9264 45 22.5C45 10.0736 34.9264 0 22.5 0C10.0736 0 0 10.0736 0 22.5C0 34.9264 10.0736 45 22.5 45Z" fill="#039BE5"/>
<path d="M13.81 22.0208L29.2366 16.0728C29.9526 15.8141 30.578 16.2475 30.346 17.3301L30.3473 17.3288L27.7206 29.7035C27.526 30.5808 27.0046 30.7941 26.2753 30.3808L22.2753 27.4328L20.346 29.2915C20.1326 29.5048 19.9526 29.6848 19.5393 29.6848L19.8233 25.6141L27.2366 18.9168C27.5593 18.6328 27.1646 18.4728 26.7393 18.7555L17.578 24.5235L13.6286 23.2915C12.7713 23.0195 12.7526 22.4341 13.81 22.0208Z" fill="white"/>
</g>
<defs>
<clipPath id="clip0_3_984">
<rect width="45" height="45" fill="white"/>
</clipPath>
</defs>
</svg>
