<svg width="28" height="28" viewBox="0 0 28 28" fill="none" xmlns="http://www.w3.org/2000/svg">
<g clip-path="url(#clip0_45_3147)">
<path d="M23.8438 5.25558V4.15625C23.8438 2.34697 22.3718 0.875 20.5625 0.875C18.7532 0.875 17.2812 2.34697 17.2812 4.15625V8.53125C17.2812 9.13533 17.7709 9.625 18.375 9.625C18.9791 9.625 19.4688 9.13533 19.4688 8.53125V7.4375H23.625C24.8312 7.4375 25.8125 8.41881 25.8125 9.625V22.75C25.8125 23.9562 24.8312 24.9375 23.625 24.9375H4.375C3.16881 24.9375 2.1875 23.9562 2.1875 22.75V9.625C2.1875 8.49264 3.05238 7.55858 4.15625 7.44849V8.53125C4.15625 9.13533 4.64592 9.625 5.25 9.625C5.85408 9.625 6.34375 9.13533 6.34375 8.53125V7.4375H14C14.6041 7.4375 15.0938 6.94783 15.0938 6.34375C15.0938 5.73967 14.6041 5.25 14 5.25H10.7188V4.15625C10.7188 2.34697 9.24678 0.875 7.4375 0.875C5.62822 0.875 4.15625 2.34697 4.15625 4.15625V5.25558C1.8451 5.36993 0 7.28596 0 9.625V22.75C0 25.1624 1.96263 27.125 4.375 27.125H23.625C26.0374 27.125 28 25.1624 28 22.75V9.625C28 7.28596 26.1549 5.36993 23.8438 5.25558ZM19.4688 4.15625C19.4688 3.55316 19.9594 3.0625 20.5625 3.0625C21.1656 3.0625 21.6562 3.55316 21.6562 4.15625V5.25H19.4688V4.15625ZM7.4375 3.0625C8.04059 3.0625 8.53125 3.55316 8.53125 4.15625V5.25H6.34375V4.15625C6.34375 3.55316 6.83441 3.0625 7.4375 3.0625Z" fill="#914948"/>
<path d="M15.0938 14H12.9062C12.3022 14 11.8125 13.5103 11.8125 12.9062C11.8125 12.3022 12.3022 11.8125 12.9062 11.8125H15.0938C15.6978 11.8125 16.1875 12.3022 16.1875 12.9062C16.1875 13.5103 15.6978 14 15.0938 14Z" fill="#914948"/>
<path d="M21.6562 14H19.4688C18.8647 14 18.375 13.5103 18.375 12.9062C18.375 12.3022 18.8647 11.8125 19.4688 11.8125H21.6562C22.2603 11.8125 22.75 12.3022 22.75 12.9062C22.75 13.5103 22.2603 14 21.6562 14Z" fill="#914948"/>
<path d="M8.53125 18.375H6.34375C5.73967 18.375 5.25 17.8853 5.25 17.2812C5.25 16.6772 5.73967 16.1875 6.34375 16.1875H8.53125C9.13533 16.1875 9.625 16.6772 9.625 17.2812C9.625 17.8853 9.13533 18.375 8.53125 18.375Z" fill="#914948"/>
<path d="M15.0938 18.375H12.9062C12.3022 18.375 11.8125 17.8853 11.8125 17.2812C11.8125 16.6772 12.3022 16.1875 12.9062 16.1875H15.0938C15.6978 16.1875 16.1875 16.6772 16.1875 17.2812C16.1875 17.8853 15.6978 18.375 15.0938 18.375Z" fill="#914948"/>
<path d="M21.6562 18.375H19.4688C18.8647 18.375 18.375 17.8853 18.375 17.2812C18.375 16.6772 18.8647 16.1875 19.4688 16.1875H21.6562C22.2603 16.1875 22.75 16.6772 22.75 17.2812C22.75 17.8853 22.2603 18.375 21.6562 18.375Z" fill="#914948"/>
<path d="M8.53125 22.75H6.34375C5.73967 22.75 5.25 22.2603 5.25 21.6562C5.25 21.0522 5.73967 20.5625 6.34375 20.5625H8.53125C9.13533 20.5625 9.625 21.0522 9.625 21.6562C9.625 22.2603 9.13533 22.75 8.53125 22.75Z" fill="#914948"/>
<path d="M15.0938 22.75H12.9062C12.3022 22.75 11.8125 22.2603 11.8125 21.6562C11.8125 21.0522 12.3022 20.5625 12.9062 20.5625H15.0938C15.6978 20.5625 16.1875 21.0522 16.1875 21.6562C16.1875 22.2603 15.6978 22.75 15.0938 22.75Z" fill="#914948"/>
</g>
<defs>
<clipPath id="clip0_45_3147">
<rect width="28" height="28" fill="white"/>
</clipPath>
</defs>
</svg>
