<svg width="45" height="45" viewBox="0 0 45 45" fill="none" xmlns="http://www.w3.org/2000/svg">
<circle cx="22.5" cy="22.5" r="22.5" fill="#29A71A"/>
<g clip-path="url(#clip0_3_975)">
<path d="M30.112 15.9417C28.4337 14.26 26.2048 13.2287 23.8275 13.0337C21.4501 12.8388 19.0808 13.4931 17.147 14.8786C15.2131 16.2641 13.8419 18.2896 13.2807 20.5897C12.7196 22.8898 13.0054 25.3132 14.0867 27.4226L13.0253 32.5348C13.0143 32.5856 13.014 32.6382 13.0244 32.6892C13.0348 32.7402 13.0557 32.7886 13.0858 32.8312C13.1299 32.8959 13.1928 32.9457 13.2662 32.974C13.3395 33.0022 13.4199 33.0076 13.4964 32.9894L18.5467 31.8019C20.667 32.8474 23.0925 33.1127 25.3915 32.5507C27.6905 31.9886 29.714 30.6356 31.1018 28.7323C32.4897 26.8291 33.1519 24.4991 32.9706 22.157C32.7894 19.8148 31.7764 17.6124 30.112 15.9417ZM28.5374 28.4101C27.3761 29.559 25.8807 30.3173 24.262 30.5783C22.6433 30.8393 20.9828 30.5898 19.5146 29.865L18.8107 29.5195L15.7145 30.2469L15.7237 30.2087L16.3653 27.1171L16.0206 26.4424C15.2705 24.9807 15.0058 23.321 15.2646 21.701C15.5235 20.0809 16.2925 18.5837 17.4615 17.4238C18.9304 15.967 20.9224 15.1486 22.9994 15.1486C25.0765 15.1486 27.0684 15.967 28.5374 17.4238C28.5499 17.4381 28.5633 17.4514 28.5777 17.4639C30.0284 18.9244 30.8382 20.8947 30.8307 22.9452C30.8231 24.9957 29.9988 26.9601 28.5374 28.4101Z" fill="white"/>
<path d="M28.2625 26.1423C27.883 26.7352 27.2836 27.4608 26.5302 27.6408C25.2103 27.9573 23.1847 27.6518 20.6641 25.3203L20.633 25.293C18.4167 23.2543 17.8411 21.5576 17.9804 20.2118C18.0574 19.448 18.699 18.7569 19.2398 18.3059C19.3253 18.2335 19.4266 18.1819 19.5358 18.1554C19.645 18.1288 19.7589 18.1279 19.8684 18.1529C19.978 18.1778 20.0802 18.2278 20.1668 18.2989C20.2534 18.37 20.322 18.4602 20.3671 18.5623L21.1829 20.3809C21.2359 20.4988 21.2555 20.6288 21.2397 20.757C21.2239 20.8852 21.1732 21.0066 21.0931 21.1084L20.6806 21.6394C20.5921 21.749 20.5387 21.8825 20.5273 22.0225C20.5158 22.1625 20.5469 22.3027 20.6165 22.425C20.8474 22.827 21.401 23.418 22.0151 23.9654C22.7044 24.5837 23.4688 25.1493 23.9528 25.3421C24.0823 25.3946 24.2246 25.4074 24.3615 25.3789C24.4984 25.3504 24.6236 25.2818 24.7209 25.1821L25.1993 24.7038C25.2916 24.6135 25.4064 24.5491 25.532 24.5171C25.6576 24.4852 25.7895 24.4868 25.9142 24.5219L27.8519 25.0675C27.9588 25.1 28.0567 25.1564 28.1383 25.2322C28.2199 25.3081 28.2829 25.4014 28.3225 25.5051C28.3621 25.6089 28.3773 25.7202 28.3669 25.8306C28.3565 25.9411 28.3208 26.0477 28.2625 26.1423Z" fill="white"/>
</g>
<defs>
<clipPath id="clip0_3_975">
<rect width="20" height="20" fill="white" transform="translate(13 13)"/>
</clipPath>
</defs>
</svg>
